<svg version="1.0" xmlns="http://www.w3.org/2000/svg" width="666.667" height="666.667" viewBox="0 0 500 500"><path d="M226 101.4c-16.5 3-29 7-42.7 14-42 21.1-70.9 58.7-81 105.6-2.8 12.9-2.5 46.9.4 60 12.8 57.3 54.5 100.4 111.3 115.1 9.4 2.4 23 3.9 36 3.9 25.9 0 46.9-5 68.6-16.4 35.6-18.6 61.6-48.8 73.9-85.9 5.4-16.3 6.6-23.6 7.2-42.7.4-14.9.2-19.4-1.6-29.9-3.8-22.4-12.7-44-25.8-62.4-7.4-10.5-24.5-27.6-35-35-16.2-11.5-37.2-20.8-57.3-25.2-10.2-2.3-43.6-2.9-54-1.1zm-40.2 92.3c.1 16.1.6 29.3 1 29.4.4.1 3.2.2 6.2.4l5.5.2.3 4.7.3 4.6H176v-69.1l4.8.3 4.7.3.3 29.2zm42.2-.4c.4 24.1.7 28.9 2 29.7 2 1.3 2.7 1.2 3.7-.3.4-.6 1-14 1.3-29.7l.5-28.5h9l.3 28c.2 17.1-.1 29.4-.7 31.5-2.4 8.1-11 12-18.5 8.5-6.8-3.3-7.1-4.5-7.4-36.9-.2-15.9-.1-29.5.2-30.3.4-1 1.9-1.3 4.8-1.1l4.3.3.5 28.8zm49 5.2V233h-10v-33.8c0-18.6.3-34.2.7-34.5.3-.4 2.6-.7 5-.7h4.3v34.5zm43.5-32.3c3.3 2.6 5.5 7.5 5.5 12.1 0 3.2-.2 3.5-4.1 4.1-2.2.4-4.4.4-4.8.1-.5-.2-1.1-2.3-1.5-4.5-.7-4.7-3.2-6.3-5.3-3.4-2.6 3.4-.9 8.7 6 19.6 8.3 13 9.7 16.4 9.7 23.4 0 6.5-2.1 11.6-5.8 14.1-3.6 2.4-12.8 2.4-16.4 0-3.2-2.2-5.8-8.3-5.8-13.6 0-4.3 1-5.1 6.6-5.1 3.1 0 3.4.3 3.4 2.9 0 4.5 1.7 8.1 3.8 8.1 2.9 0 4.2-2.1 4.2-6.6 0-3.5-1.1-5.8-6.2-13.5-10.1-15.4-12.5-23.2-9.5-31.9 2.6-7.4 14-10.7 20.2-5.8zm-85.8 95c.9.7 2.4 3.1 3.4 5.3 1.6 3.5 1.9 6.9 1.9 27.3 0 17.5-.3 24.1-1.4 26.5-4.6 10.8-18.6 11.6-23.6 1.3-1.8-3.9-2-6.1-2-27.9 0-25.1.5-28.2 4.8-32.1 4-3.5 12.9-3.8 16.9-.4zm-49.8-.7c4.1 2.1 6.3 7.6 6.5 15.9l.1 7.1-5.2.3-5.3.3v-6.3c0-7.1-.9-9.2-3.6-8.6-1.8.3-1.9 1.7-2.2 24.4-.2 20.6 0 24.3 1.3 25.4 1.2 1 1.8 1 3 0 1.1-.9 1.5-3.3 1.5-9.1 0-7.2-.2-7.9-2-7.9-1.7 0-2-.7-2-4v-4.1l7.3.3 7.2.3v33l-2.9.3c-1.6.2-3.2-.2-3.6-.8-.5-.9-1.5-.8-3.8.4-3.9 2-6.5 2-10.2.1-5.8-3-6.2-5.2-6.2-32.9-.1-22.2.1-25.6 1.7-28.9 1-2.1 2.9-4.4 4.4-5.2 3.4-1.9 10.5-1.9 14 0zm86.1.7c.6 1.3 3 9.7 5.5 18.7s4.7 16.6 5 16.9c.3.3.5-8.1.5-18.6V259h9v69h-8.9l-1.5-5.3c-.9-2.8-3.1-11-5-18.1-2-7.1-3.8-13.1-4.1-13.4-.3-.3-.5 7.9-.5 18.1V328h-9v-69h4c3.2 0 4.2.5 5 2.2zm66.8 2.5c.2 3.1-1.7 10.5-7.7 28.8-4.5 13.5-8.1 24.8-8.1 25.1 0 .2 3.6.4 8 .4h8v10h-27v-5.8c0-4.5 1.5-10.4 6.8-26.2 9.7-28.8 9.4-25.8 2-26.2l-6.3-.3-.3-5.3-.3-5.3 12.3.3 12.3.3.3 4.2z"/><path d="M224 270.9c-1.3 2.5-1.3 42.1 0 45.5 1.1 3.1 3.5 3.4 5 .7.6-1.2 1-10.4 1-23.1 0-21-.6-25-3.5-25-.8 0-1.9.9-2.5 1.9z"/></svg>